STARTFONT 2.1
FONT -Monotype-Bembo-Bold-R-Normal--12-120-72-72-P-62-iso8859-1
SIZE 12 72 72
FONTBOUNDINGBOX 15 15 -1 -3

STARTPROPERTIES 22
FOUNDRY "Monotype"
FAMILY_NAME "Bembo"
WEIGHT_NAME "Bold"
SLANT "R"
SETWIDTH_NAME "Normal"
ADD_STYLE_NAME ""
PIXEL_SIZE 12
POINT_SIZE 120
RESOLUTION_X 72
RESOLUTION_Y 72
SPACING "P"
AVERAGE_WIDTH 62
CHARSET_REGISTRY "iso8859"
CHARSET_ENCODING "1"
COPYRIGHT "Copyright (c) 1996 Monotype Typography Ltd."
CAP_HEIGHT 9
X_HEIGHT 6
WEIGHT 10
QUAD_WIDTH 8
DEFAULT_CHAR 32
FONT_DESCENT 4
FONT_ASCENT 12
ENDPROPERTIES

CHARS 191

STARTCHAR space
ENCODING 32
SWIDTH 333 0
DWIDTH 5 0
BBX 0 0 0 0
BITMAP
ENDCHAR

STARTCHAR exclam
ENCODING 33
SWIDTH 313 0
DWIDTH 4 0
BBX 2 8 1 0
BITMAP
C0
C0
C0
C0
C0
00
C0
C0
ENDCHAR

STARTCHAR quotedbl
ENCODING 34
SWIDTH 552 0
DWIDTH 7 0
BBX 5 3 1 5
BITMAP
D8
D8
D8
ENDCHAR

STARTCHAR numbersign
ENCODING 35
SWIDTH 668 0
DWIDTH 9 0
BBX 8 8 0 0
BITMAP
12
12
7F
24
24
FE
48
48
ENDCHAR

STARTCHAR dollar
ENCODING 36
SWIDTH 479 0
DWIDTH 6 0
BBX 5 10 0 -1
BITMAP
20
70
A8
A0
F0
78
28
A8
70
20
ENDCHAR

STARTCHAR percent
ENCODING 37
SWIDTH 896 0
DWIDTH 12 0
BBX 8 8 2 0
BITMAP
41
A2
A4
48
12
25
45
82
ENDCHAR

STARTCHAR ampersand
ENCODING 38
SWIDTH 750 0
DWIDTH 10 0
BBX 8 8 1 0
BITMAP
30
68
69
32
5A
CC
CE
77
ENDCHAR

STARTCHAR quoteright
ENCODING 39
SWIDTH 313 0
DWIDTH 4 0
BBX 2 4 1 4
BITMAP
C0
C0
40
80
ENDCHAR

STARTCHAR parenleft
ENCODING 40
SWIDTH 354 0
DWIDTH 5 0
BBX 4 11 1 -3
BITMAP
10
20
40
C0
C0
C0
C0
C0
40
20
10
ENDCHAR

STARTCHAR parenright
ENCODING 41
SWIDTH 354 0
DWIDTH 5 0
BBX 4 11 0 -3
BITMAP
80
40
20
30
30
30
30
30
20
40
80
ENDCHAR

STARTCHAR asterisk
ENCODING 42
SWIDTH 521 0
DWIDTH 7 0
BBX 5 5 1 3
BITMAP
20
A8
70
50
88
ENDCHAR

STARTCHAR plus
ENCODING 43
SWIDTH 667 0
DWIDTH 9 0
BBX 7 7 1 1
BITMAP
10
10
10
FE
10
10
10
ENDCHAR

STARTCHAR comma
ENCODING 44
SWIDTH 313 0
DWIDTH 4 0
BBX 2 4 1 -2
BITMAP
C0
C0
40
80
ENDCHAR

STARTCHAR minus
ENCODING 45
SWIDTH 667 0
DWIDTH 9 0
BBX 7 1 1 4
BITMAP
FE
ENDCHAR

STARTCHAR period
ENCODING 46
SWIDTH 313 0
DWIDTH 4 0
BBX 2 2 1 0
BITMAP
C0
C0
ENDCHAR

STARTCHAR slash
ENCODING 47
SWIDTH 531 0
DWIDTH 7 0
BBX 5 10 1 -2
BITMAP
08
08
10
10
20
20
40
40
80
80
ENDCHAR

STARTCHAR zero
ENCODING 48
SWIDTH 500 0
DWIDTH 7 0
BBX 6 8 0 0
BITMAP
30
48
CC
CC
CC
CC
48
30
ENDCHAR

STARTCHAR one
ENCODING 49
SWIDTH 500 0
DWIDTH 7 0
BBX 4 8 1 0
BITMAP
60
E0
60
60
60
60
60
F0
ENDCHAR

STARTCHAR two
ENCODING 50
SWIDTH 500 0
DWIDTH 7 0
BBX 6 8 0 0
BITMAP
38
4C
0C
08
10
24
7C
FC
ENDCHAR

STARTCHAR three
ENCODING 51
SWIDTH 500 0
DWIDTH 7 0
BBX 5 8 1 0
BITMAP
70
98
18
70
18
18
98
70
ENDCHAR

STARTCHAR four
ENCODING 52
SWIDTH 500 0
DWIDTH 7 0
BBX 6 8 0 0
BITMAP
08
18
38
58
58
FC
18
18
ENDCHAR

STARTCHAR five
ENCODING 53
SWIDTH 500 0
DWIDTH 7 0
BBX 6 8 0 0
BITMAP
78
78
40
78
0C
0C
8C
78
ENDCHAR

STARTCHAR six
ENCODING 54
SWIDTH 500 0
DWIDTH 7 0
BBX 6 8 0 0
BITMAP
38
60
C0
D8
EC
CC
CC
78
ENDCHAR

STARTCHAR seven
ENCODING 55
SWIDTH 500 0
DWIDTH 7 0
BBX 5 8 1 0
BITMAP
F8
F8
90
10
20
20
40
40
ENDCHAR

STARTCHAR eight
ENCODING 56
SWIDTH 500 0
DWIDTH 7 0
BBX 5 8 1 0
BITMAP
70
D8
D8
70
70
D8
D8
70
ENDCHAR

STARTCHAR nine
ENCODING 57
SWIDTH 500 0
DWIDTH 7 0
BBX 6 8 0 0
BITMAP
78
CC
CC
DC
6C
0C
18
70
ENDCHAR

STARTCHAR colon
ENCODING 58
SWIDTH 313 0
DWIDTH 4 0
BBX 2 6 1 0
BITMAP
C0
C0
00
00
C0
C0
ENDCHAR

STARTCHAR semicolon
ENCODING 59
SWIDTH 313 0
DWIDTH 4 0
BBX 2 8 1 -2
BITMAP
C0
C0
00
00
C0
C0
40
80
ENDCHAR

STARTCHAR less
ENCODING 60
SWIDTH 667 0
DWIDTH 9 0
BBX 8 7 0 1
BITMAP
03
0C
30
C0
30
0C
03
ENDCHAR

STARTCHAR equal
ENCODING 61
SWIDTH 667 0
DWIDTH 9 0
BBX 7 4 1 2
BITMAP
FE
00
00
FE
ENDCHAR

STARTCHAR greater
ENCODING 62
SWIDTH 667 0
DWIDTH 9 0
BBX 8 7 0 1
BITMAP
C0
30
0C
03
0C
30
C0
ENDCHAR

STARTCHAR question
ENCODING 63
SWIDTH 365 0
DWIDTH 5 0
BBX 4 8 1 0
BITMAP
E0
B0
30
E0
80
00
C0
C0
ENDCHAR

STARTCHAR at
ENCODING 64
SWIDTH 927 0
DWIDTH 12 0
BBX 10 11 1 -3
BITMAP
1F00
2080
4E40
9340
B340
B640
B680
9B00
4040
2180
1E00
ENDCHAR

STARTCHAR A
ENCODING 65
SWIDTH 740 0
DWIDTH 10 0
BBX 9 8 0 0
BITMAP
0C00
0C00
1600
1600
3E00
2300
4300
E780
ENDCHAR

STARTCHAR B
ENCODING 66
SWIDTH 698 0
DWIDTH 9 0
BBX 7 8 1 0
BITMAP
FC
66
66
7C
66
66
66
FC
ENDCHAR

STARTCHAR C
ENCODING 67
SWIDTH 740 0
DWIDTH 10 0
BBX 8 8 1 0
BITMAP
3E
63
C1
C0
C0
C1
63
3E
ENDCHAR

STARTCHAR D
ENCODING 68
SWIDTH 823 0
DWIDTH 11 0
BBX 9 8 1 0
BITMAP
FC00
6300
6180
6180
6180
6180
6300
FC00
ENDCHAR

STARTCHAR E
ENCODING 69
SWIDTH 646 0
DWIDTH 8 0
BBX 6 8 1 0
BITMAP
FC
64
68
78
68
60
64
FC
ENDCHAR

STARTCHAR F
ENCODING 70
SWIDTH 594 0
DWIDTH 8 0
BBX 6 8 1 0
BITMAP
FC
64
68
78
68
60
60
F0
ENDCHAR

STARTCHAR G
ENCODING 71
SWIDTH 781 0
DWIDTH 10 0
BBX 9 8 1 0
BITMAP
3E00
6300
C100
C000
C780
C300
6300
3E00
ENDCHAR

STARTCHAR H
ENCODING 72
SWIDTH 833 0
DWIDTH 11 0
BBX 9 8 1 0
BITMAP
F780
6300
6300
7F00
6300
6300
6300
F780
ENDCHAR

STARTCHAR I
ENCODING 73
SWIDTH 365 0
DWIDTH 5 0
BBX 4 8 0 0
BITMAP
F0
60
60
60
60
60
60
F0
ENDCHAR

STARTCHAR J
ENCODING 74
SWIDTH 344 0
DWIDTH 4 0
BBX 5 11 -1 -3
BITMAP
78
30
30
30
30
30
30
30
30
20
C0
ENDCHAR

STARTCHAR K
ENCODING 75
SWIDTH 740 0
DWIDTH 10 0
BBX 9 8 0 0
BITMAP
F780
6200
6400
7800
6C00
6600
6300
F780
ENDCHAR

STARTCHAR L
ENCODING 76
SWIDTH 604 0
DWIDTH 8 0
BBX 7 8 1 0
BITMAP
F0
60
60
60
60
60
62
FE
ENDCHAR

STARTCHAR M
ENCODING 77
SWIDTH 927 0
DWIDTH 12 0
BBX 12 8 0 0
BITMAP
F0F0
70E0
5960
5960
4E60
4E60
4460
E4F0
ENDCHAR

STARTCHAR N
ENCODING 78
SWIDTH 813 0
DWIDTH 11 0
BBX 9 8 1 0
BITMAP
E380
7100
5900
4D00
4D00
4700
4300
E100
ENDCHAR

STARTCHAR O
ENCODING 79
SWIDTH 844 0
DWIDTH 11 0
BBX 9 8 1 0
BITMAP
3E00
6300
C180
C180
C180
C180
6300
3E00
ENDCHAR

STARTCHAR P
ENCODING 80
SWIDTH 646 0
DWIDTH 8 0
BBX 6 8 1 0
BITMAP
F8
6C
6C
6C
78
60
60
F0
ENDCHAR

STARTCHAR Q
ENCODING 81
SWIDTH 844 0
DWIDTH 11 0
BBX 9 11 1 -3
BITMAP
1C00
6300
C180
C180
C180
C180
6300
1C00
0C00
0600
0380
ENDCHAR

STARTCHAR R
ENCODING 82
SWIDTH 771 0
DWIDTH 10 0
BBX 9 8 1 0
BITMAP
FC00
6600
6600
6600
7C00
6C00
6600
F380
ENDCHAR

STARTCHAR S
ENCODING 83
SWIDTH 563 0
DWIDTH 7 0
BBX 5 8 1 0
BITMAP
78
C8
E0
70
38
18
98
F0
ENDCHAR

STARTCHAR T
ENCODING 84
SWIDTH 729 0
DWIDTH 9 0
BBX 8 8 0 0
BITMAP
FF
99
18
18
18
18
18
3C
ENDCHAR

STARTCHAR U
ENCODING 85
SWIDTH 771 0
DWIDTH 10 0
BBX 10 8 0 0
BITMAP
F1C0
6080
6080
6080
6080
6080
3100
1E00
ENDCHAR

STARTCHAR V
ENCODING 86
SWIDTH 750 0
DWIDTH 10 0
BBX 10 8 0 0
BITMAP
F1C0
6080
3100
3100
1A00
1A00
0C00
0C00
ENDCHAR

STARTCHAR W
ENCODING 87
SWIDTH 1000 0
DWIDTH 13 0
BBX 14 8 0 0
BITMAP
EFDC
6688
3690
3310
1BA0
1BA0
0CC0
0CC0
ENDCHAR

STARTCHAR X
ENCODING 88
SWIDTH 802 0
DWIDTH 10 0
BBX 9 8 0 0
BITMAP
F780
6200
3400
1800
1C00
2600
4300
E780
ENDCHAR

STARTCHAR Y
ENCODING 89
SWIDTH 750 0
DWIDTH 10 0
BBX 8 8 1 0
BITMAP
F7
62
34
18
18
18
18
3C
ENDCHAR

STARTCHAR Z
ENCODING 90
SWIDTH 750 0
DWIDTH 10 0
BBX 8 8 1 0
BITMAP
FF
86
0C
18
30
60
C1
FF
ENDCHAR

STARTCHAR bracketleft
ENCODING 91
SWIDTH 365 0
DWIDTH 5 0
BBX 3 11 1 -3
BITMAP
E0
C0
C0
C0
C0
C0
C0
C0
C0
C0
E0
ENDCHAR

STARTCHAR backslash
ENCODING 92
SWIDTH 531 0
DWIDTH 7 0
BBX 5 10 1 -2
BITMAP
80
80
40
40
20
20
10
10
08
08
ENDCHAR

STARTCHAR bracketright
ENCODING 93
SWIDTH 365 0
DWIDTH 5 0
BBX 3 11 1 -3
BITMAP
E0
60
60
60
60
60
60
60
60
60
E0
ENDCHAR

STARTCHAR asciicircum
ENCODING 94
SWIDTH 583 0
DWIDTH 8 0
BBX 6 5 1 4
BITMAP
30
30
48
48
84
ENDCHAR

STARTCHAR underscore
ENCODING 95
SWIDTH 500 0
DWIDTH 7 0
BBX 7 1 0 -2
BITMAP
FE
ENDCHAR

STARTCHAR quoteleft
ENCODING 96
SWIDTH 313 0
DWIDTH 4 0
BBX 2 3 1 5
BITMAP
C0
C0
C0
ENDCHAR

STARTCHAR a
ENCODING 97
SWIDTH 479 0
DWIDTH 6 0
BBX 6 5 0 0
BITMAP
70
98
78
D8
EC
ENDCHAR

STARTCHAR b
ENCODING 98
SWIDTH 573 0
DWIDTH 7 0
BBX 7 9 0 0
BITMAP
20
E0
60
60
6C
76
66
66
7C
ENDCHAR

STARTCHAR c
ENCODING 99
SWIDTH 490 0
DWIDTH 6 0
BBX 5 5 0 0
BITMAP
70
C8
C0
C8
70
ENDCHAR

STARTCHAR d
ENCODING 100
SWIDTH 573 0
DWIDTH 7 0
BBX 7 9 0 0
BITMAP
04
1C
0C
0C
6C
DC
CC
DC
6E
ENDCHAR

STARTCHAR e
ENCODING 101
SWIDTH 479 0
DWIDTH 6 0
BBX 5 5 0 0
BITMAP
70
D8
F8
C0
78
ENDCHAR

STARTCHAR f
ENCODING 102
SWIDTH 323 0
DWIDTH 4 0
BBX 5 8 0 0
BITMAP
38
60
60
F0
60
60
60
F0
ENDCHAR

STARTCHAR g
ENCODING 103
SWIDTH 552 0
DWIDTH 7 0
BBX 6 8 1 -3
BITMAP
7C
D8
D8
70
C0
78
CC
78
ENDCHAR

STARTCHAR h
ENCODING 104
SWIDTH 563 0
DWIDTH 7 0
BBX 7 9 0 0
BITMAP
20
E0
60
60
6C
7C
6C
6C
EE
ENDCHAR

STARTCHAR i
ENCODING 105
SWIDTH 292 0
DWIDTH 4 0
BBX 4 9 0 0
BITMAP
60
60
00
20
E0
60
60
60
F0
ENDCHAR

STARTCHAR j
ENCODING 106
SWIDTH 281 0
DWIDTH 4 0
BBX 4 12 -1 -3
BITMAP
30
30
00
10
70
30
30
30
30
30
20
C0
ENDCHAR

STARTCHAR k
ENCODING 107
SWIDTH 542 0
DWIDTH 7 0
BBX 7 9 0 0
BITMAP
20
E0
60
60
66
68
78
6C
F6
ENDCHAR

STARTCHAR l
ENCODING 108
SWIDTH 271 0
DWIDTH 4 0
BBX 4 9 0 0
BITMAP
20
E0
60
60
60
60
60
60
F0
ENDCHAR

STARTCHAR m
ENCODING 109
SWIDTH 927 0
DWIDTH 12 0
BBX 12 5 0 0
BITMAP
EEC0
7760
6660
6660
F770
ENDCHAR

STARTCHAR n
ENCODING 110
SWIDTH 573 0
DWIDTH 7 0
BBX 7 5 0 0
BITMAP
EC
7C
6C
6C
EE
ENDCHAR

STARTCHAR o
ENCODING 111
SWIDTH 573 0
DWIDTH 7 0
BBX 6 5 0 0
BITMAP
78
CC
CC
CC
78
ENDCHAR

STARTCHAR p
ENCODING 112
SWIDTH 573 0
DWIDTH 7 0
BBX 7 9 0 -3
BITMAP
20
EC
76
66
76
6C
60
60
F0
ENDCHAR

STARTCHAR q
ENCODING 113
SWIDTH 573 0
DWIDTH 7 0
BBX 7 8 0 -3
BITMAP
74
CC
CC
DC
6C
0C
0C
1E
ENDCHAR

STARTCHAR r
ENCODING 114
SWIDTH 396 0
DWIDTH 5 0
BBX 5 5 0 0
BITMAP
E8
78
60
60
F0
ENDCHAR

STARTCHAR s
ENCODING 115
SWIDTH 375 0
DWIDTH 5 0
BBX 4 5 0 0
BITMAP
70
D0
60
B0
E0
ENDCHAR

STARTCHAR t
ENCODING 116
SWIDTH 344 0
DWIDTH 4 0
BBX 4 7 0 0
BITMAP
20
60
F0
60
60
60
30
ENDCHAR

STARTCHAR u
ENCODING 117
SWIDTH 573 0
DWIDTH 7 0
BBX 7 5 0 0
BITMAP
EC
6C
6C
6C
36
ENDCHAR

STARTCHAR v
ENCODING 118
SWIDTH 521 0
DWIDTH 7 0
BBX 7 5 0 0
BITMAP
EE
64
68
38
10
ENDCHAR

STARTCHAR w
ENCODING 119
SWIDTH 781 0
DWIDTH 10 0
BBX 11 5 0 0
BITMAP
EF60
6640
6A80
3B80
1100
ENDCHAR

STARTCHAR x
ENCODING 120
SWIDTH 531 0
DWIDTH 7 0
BBX 6 5 0 0
BITMAP
EC
78
30
78
DC
ENDCHAR

STARTCHAR y
ENCODING 121
SWIDTH 521 0
DWIDTH 7 0
BBX 7 8 0 -3
BITMAP
EE
64
68
38
10
30
60
60
ENDCHAR

STARTCHAR z
ENCODING 122
SWIDTH 510 0
DWIDTH 7 0
BBX 6 5 0 0
BITMAP
FC
98
30
64
FC
ENDCHAR

STARTCHAR braceleft
ENCODING 123
SWIDTH 396 0
DWIDTH 5 0
BBX 3 11 1 -3
BITMAP
20
40
40
40
40
80
40
40
40
40
20
ENDCHAR

STARTCHAR bar
ENCODING 124
SWIDTH 566 0
DWIDTH 7 0
BBX 1 11 3 -3
BITMAP
80
80
80
80
80
80
80
80
80
80
80
ENDCHAR

STARTCHAR braceright
ENCODING 125
SWIDTH 396 0
DWIDTH 5 0
BBX 3 11 1 -3
BITMAP
80
40
40
40
40
20
40
40
40
40
80
ENDCHAR

STARTCHAR asciitilde
ENCODING 126
SWIDTH 521 0
DWIDTH 7 0
BBX 7 2 0 3
BITMAP
72
9C
ENDCHAR

STARTCHAR space
ENCODING 160
SWIDTH 333 0
DWIDTH 4 0
BBX 0 0 0 0
BITMAP
ENDCHAR

STARTCHAR exclamdown
ENCODING 161
SWIDTH 313 0
DWIDTH 4 0
BBX 2 8 1 -3
BITMAP
C0
C0
00
C0
C0
C0
C0
C0
ENDCHAR

STARTCHAR cent
ENCODING 162
SWIDTH 490 0
DWIDTH 6 0
BBX 5 10 0 -2
BITMAP
08
08
10
70
D8
D0
E8
70
40
40
ENDCHAR

STARTCHAR sterling
ENCODING 163
SWIDTH 833 0
DWIDTH 11 0
BBX 9 11 1 -3
BITMAP
0780
0C80
1800
1800
3000
3000
F800
6000
7880
CC80
8700
ENDCHAR

STARTCHAR currency
ENCODING 164
SWIDTH 667 0
DWIDTH 9 0
BBX 6 6 1 1
BITMAP
B4
48
84
84
48
B4
ENDCHAR

STARTCHAR yen
ENCODING 165
SWIDTH 500 0
DWIDTH 7 0
BBX 6 8 0 0
BITMAP
EC
68
30
FC
30
FC
30
78
ENDCHAR

STARTCHAR brokenbar
ENCODING 166
SWIDTH 566 0
DWIDTH 7 0
BBX 1 11 3 -3
BITMAP
80
80
80
80
80
00
80
80
80
80
80
ENDCHAR

STARTCHAR section
ENCODING 167
SWIDTH 469 0
DWIDTH 6 0
BBX 5 12 0 -3
BITMAP
30
48
A0
A0
90
50
48
28
28
10
90
60
ENDCHAR

STARTCHAR dieresis
ENCODING 168
SWIDTH 333 0
DWIDTH 4 0
BBX 5 2 0 6
BITMAP
D8
D8
ENDCHAR

STARTCHAR copyright
ENCODING 169
SWIDTH 750 0
DWIDTH 10 0
BBX 9 9 0 0
BITMAP
3E00
4100
9C80
B280
B080
B280
9C80
4100
3E00
ENDCHAR

STARTCHAR ordfeminine
ENCODING 170
SWIDTH 365 0
DWIDTH 5 0
BBX 4 4 1 4
BITMAP
E0
60
A0
D0
ENDCHAR

STARTCHAR guillemotleft
ENCODING 171
SWIDTH 427 0
DWIDTH 6 0
BBX 6 5 0 0
BITMAP
24
48
90
48
24
ENDCHAR

STARTCHAR logicalnot
ENCODING 172
SWIDTH 667 0
DWIDTH 9 0
BBX 7 4 1 2
BITMAP
FE
02
02
02
ENDCHAR

STARTCHAR hyphen
ENCODING 173
SWIDTH 417 0
DWIDTH 5 0
BBX 5 1 0 2
BITMAP
F8
ENDCHAR

STARTCHAR registered
ENCODING 174
SWIDTH 750 0
DWIDTH 10 0
BBX 9 9 0 0
BITMAP
3E00
4100
BC80
B680
BC80
B680
B680
4100
3E00
ENDCHAR

STARTCHAR macron
ENCODING 175
SWIDTH 333 0
DWIDTH 4 0
BBX 4 1 0 7
BITMAP
F0
ENDCHAR

STARTCHAR degree
ENCODING 176
SWIDTH 396 0
DWIDTH 5 0
BBX 4 4 0 4
BITMAP
60
90
90
60
ENDCHAR

STARTCHAR plusminus
ENCODING 177
SWIDTH 668 0
DWIDTH 9 0
BBX 7 9 1 0
BITMAP
10
10
10
FE
10
10
10
00
FE
ENDCHAR

STARTCHAR twosuperior
ENCODING 178
SWIDTH 313 0
DWIDTH 4 0
BBX 3 4 0 4
BITMAP
E0
20
40
E0
ENDCHAR

STARTCHAR threesuperior
ENCODING 179
SWIDTH 313 0
DWIDTH 4 0
BBX 3 4 0 4
BITMAP
E0
40
20
C0
ENDCHAR

STARTCHAR acute
ENCODING 180
SWIDTH 333 0
DWIDTH 4 0
BBX 2 4 1 4
BITMAP
40
80
C0
C0
ENDCHAR

STARTCHAR mu
ENCODING 181
SWIDTH 552 0
DWIDTH 7 0
BBX 6 8 1 -3
BITMAP
D8
D8
D8
D8
EC
80
C0
C0
ENDCHAR

STARTCHAR paragraph
ENCODING 182
SWIDTH 542 0
DWIDTH 7 0
BBX 6 11 1 -3
BITMAP
7C
E8
E8
E8
68
28
28
28
28
28
28
ENDCHAR

STARTCHAR periodcentered
ENCODING 183
SWIDTH 313 0
DWIDTH 4 0
BBX 2 2 1 3
BITMAP
C0
C0
ENDCHAR

STARTCHAR cedilla
ENCODING 184
SWIDTH 333 0
DWIDTH 4 0
BBX 4 3 0 -3
BITMAP
60
30
E0
ENDCHAR

STARTCHAR onesuperior
ENCODING 185
SWIDTH 313 0
DWIDTH 4 0
BBX 3 5 0 4
BITMAP
40
C0
40
40
E0
ENDCHAR

STARTCHAR ordmasculine
ENCODING 186
SWIDTH 375 0
DWIDTH 5 0
BBX 4 4 0 4
BITMAP
60
90
90
60
ENDCHAR

STARTCHAR guillemotright
ENCODING 187
SWIDTH 427 0
DWIDTH 6 0
BBX 6 5 0 0
BITMAP
90
48
24
48
90
ENDCHAR

STARTCHAR onequarter
ENCODING 188
SWIDTH 823 0
DWIDTH 11 0
BBX 9 8 1 0
BITMAP
C100
4200
4400
E800
1100
2300
4780
8100
ENDCHAR

STARTCHAR onehalf
ENCODING 189
SWIDTH 823 0
DWIDTH 11 0
BBX 8 8 1 0
BITMAP
C1
42
44
E8
17
21
42
87
ENDCHAR

STARTCHAR threequarters
ENCODING 190
SWIDTH 823 0
DWIDTH 11 0
BBX 9 8 1 0
BITMAP
E100
4200
2400
C800
1100
2300
4780
8100
ENDCHAR

STARTCHAR questiondown
ENCODING 191
SWIDTH 365 0
DWIDTH 5 0
BBX 4 8 0 -3
BITMAP
30
30
00
10
70
C0
D0
70
ENDCHAR

STARTCHAR Agrave
ENCODING 192
SWIDTH 740 0
DWIDTH 10 0
BBX 9 11 0 0
BITMAP
1800
0C00
0000
0C00
0C00
1600
1600
3E00
2300
4300
E780
ENDCHAR

STARTCHAR Aacute
ENCODING 193
SWIDTH 740 0
DWIDTH 10 0
BBX 9 11 0 0
BITMAP
0600
0C00
0000
0C00
0C00
1600
1600
3E00
2300
4300
E780
ENDCHAR

STARTCHAR Acircumflex
ENCODING 194
SWIDTH 740 0
DWIDTH 10 0
BBX 9 11 0 0
BITMAP
0E00
1B00
0000
0C00
0C00
1600
1600
3E00
2300
4300
E780
ENDCHAR

STARTCHAR Atilde
ENCODING 195
SWIDTH 740 0
DWIDTH 10 0
BBX 9 11 0 0
BITMAP
0D00
1600
0000
0C00
0C00
1600
1600
3E00
2300
4300
E780
ENDCHAR

STARTCHAR Adieresis
ENCODING 196
SWIDTH 740 0
DWIDTH 10 0
BBX 9 11 0 0
BITMAP
1B00
1B00
0000
0C00
0C00
1600
1600
3E00
2300
4300
E780
ENDCHAR

STARTCHAR Aring
ENCODING 197
SWIDTH 740 0
DWIDTH 10 0
BBX 9 12 0 0
BITMAP
0C00
1200
0C00
0000
0C00
0C00
1600
1600
3E00
2300
4300
E780
ENDCHAR

STARTCHAR AE
ENCODING 198
SWIDTH 896 0
DWIDTH 12 0
BBX 10 8 1 0
BITMAP
1FC0
0E40
1680
1F80
2680
2600
4640
EFC0
ENDCHAR

STARTCHAR Ccedilla
ENCODING 199
SWIDTH 740 0
DWIDTH 10 0
BBX 8 11 1 -3
BITMAP
3E
63
C1
C0
C0
C1
63
3E
18
0C
38
ENDCHAR

STARTCHAR Egrave
ENCODING 200
SWIDTH 646 0
DWIDTH 8 0
BBX 6 11 1 0
BITMAP
30
18
00
FC
64
68
78
68
60
64
FC
ENDCHAR

STARTCHAR Eacute
ENCODING 201
SWIDTH 646 0
DWIDTH 8 0
BBX 6 11 1 0
BITMAP
0C
18
00
FC
64
68
78
68
60
64
FC
ENDCHAR

STARTCHAR Ecircumflex
ENCODING 202
SWIDTH 646 0
DWIDTH 8 0
BBX 6 11 1 0
BITMAP
38
6C
00
FC
64
68
78
68
60
64
FC
ENDCHAR

STARTCHAR Edieresis
ENCODING 203
SWIDTH 646 0
DWIDTH 8 0
BBX 6 11 1 0
BITMAP
6C
6C
00
FC
64
68
78
68
60
64
FC
ENDCHAR

STARTCHAR Igrave
ENCODING 204
SWIDTH 365 0
DWIDTH 5 0
BBX 4 11 0 0
BITMAP
C0
60
00
F0
60
60
60
60
60
60
F0
ENDCHAR

STARTCHAR Iacute
ENCODING 205
SWIDTH 365 0
DWIDTH 5 0
BBX 4 11 0 0
BITMAP
30
60
00
F0
60
60
60
60
60
60
F0
ENDCHAR

STARTCHAR Icircumflex
ENCODING 206
SWIDTH 365 0
DWIDTH 5 0
BBX 5 11 0 0
BITMAP
70
D8
00
F0
60
60
60
60
60
60
F0
ENDCHAR

STARTCHAR Idieresis
ENCODING 207
SWIDTH 365 0
DWIDTH 5 0
BBX 5 11 0 0
BITMAP
D8
D8
00
F0
60
60
60
60
60
60
F0
ENDCHAR

STARTCHAR Eth
ENCODING 208
SWIDTH 823 0
DWIDTH 11 0
BBX 9 8 1 0
BITMAP
FC00
6300
6180
6180
F980
6180
6300
FC00
ENDCHAR

STARTCHAR Ntilde
ENCODING 209
SWIDTH 813 0
DWIDTH 11 0
BBX 9 11 1 0
BITMAP
1A00
2C00
0000
E380
7100
5900
4D00
4D00
4700
4300
E100
ENDCHAR

STARTCHAR Ograve
ENCODING 210
SWIDTH 844 0
DWIDTH 11 0
BBX 9 11 1 0
BITMAP
1800
0C00
0000
3E00
6300
C180
C180
C180
C180
6300
3E00
ENDCHAR

STARTCHAR Oacute
ENCODING 211
SWIDTH 844 0
DWIDTH 11 0
BBX 9 11 1 0
BITMAP
0600
0C00
0000
3E00
6300
C180
C180
C180
C180
6300
3E00
ENDCHAR

STARTCHAR Ocircumflex
ENCODING 212
SWIDTH 844 0
DWIDTH 11 0
BBX 9 11 1 0
BITMAP
1C00
3600
0000
3E00
6300
C180
C180
C180
C180
6300
3E00
ENDCHAR

STARTCHAR Otilde
ENCODING 213
SWIDTH 844 0
DWIDTH 11 0
BBX 9 11 1 0
BITMAP
0D00
1600
0000
3E00
6300
C180
C180
C180
C180
6300
3E00
ENDCHAR

STARTCHAR Odieresis
ENCODING 214
SWIDTH 844 0
DWIDTH 11 0
BBX 9 11 1 0
BITMAP
3600
3600
0000
3E00
6300
C180
C180
C180
C180
6300
3E00
ENDCHAR

STARTCHAR multiply
ENCODING 215
SWIDTH 667 0
DWIDTH 9 0
BBX 6 6 1 1
BITMAP
84
48
30
30
48
84
ENDCHAR

STARTCHAR Oslash
ENCODING 216
SWIDTH 844 0
DWIDTH 11 0
BBX 9 9 1 -1
BITMAP
3F80
6300
C780
CD80
D980
F180
6300
FE00
8000
ENDCHAR

STARTCHAR Ugrave
ENCODING 217
SWIDTH 771 0
DWIDTH 10 0
BBX 10 11 0 0
BITMAP
0C00
0600
0000
F1C0
6080
6080
6080
6080
6080
3100
1E00
ENDCHAR

STARTCHAR Uacute
ENCODING 218
SWIDTH 771 0
DWIDTH 10 0
BBX 10 11 0 0
BITMAP
0600
0C00
0000
F1C0
6080
6080
6080
6080
6080
3100
1E00
ENDCHAR

STARTCHAR Ucircumflex
ENCODING 219
SWIDTH 771 0
DWIDTH 10 0
BBX 10 11 0 0
BITMAP
0E00
1B00
0000
F1C0
6080
6080
6080
6080
6080
3100
1E00
ENDCHAR

STARTCHAR Udieresis
ENCODING 220
SWIDTH 771 0
DWIDTH 10 0
BBX 10 11 0 0
BITMAP
3300
3300
0000
F1C0
6080
6080
6080
6080
6080
3100
1E00
ENDCHAR

STARTCHAR Yacute
ENCODING 221
SWIDTH 750 0
DWIDTH 10 0
BBX 8 11 1 0
BITMAP
0C
18
00
F7
62
34
18
18
18
18
3C
ENDCHAR

STARTCHAR Thorn
ENCODING 222
SWIDTH 646 0
DWIDTH 8 0
BBX 7 8 0 0
BITMAP
F0
60
7C
66
66
7C
60
F0
ENDCHAR

STARTCHAR germandbls
ENCODING 223
SWIDTH 563 0
DWIDTH 7 0
BBX 7 8 0 0
BITMAP
38
6C
6C
78
6C
66
66
CC
ENDCHAR

STARTCHAR agrave
ENCODING 224
SWIDTH 479 0
DWIDTH 6 0
BBX 6 8 0 0
BITMAP
60
30
00
70
98
78
D8
EC
ENDCHAR

STARTCHAR aacute
ENCODING 225
SWIDTH 479 0
DWIDTH 6 0
BBX 6 8 0 0
BITMAP
18
30
00
70
98
78
D8
EC
ENDCHAR

STARTCHAR acircumflex
ENCODING 226
SWIDTH 479 0
DWIDTH 6 0
BBX 6 8 0 0
BITMAP
70
D8
00
70
98
78
D8
EC
ENDCHAR

STARTCHAR atilde
ENCODING 227
SWIDTH 479 0
DWIDTH 6 0
BBX 6 8 0 0
BITMAP
68
B0
00
70
98
78
D8
EC
ENDCHAR

STARTCHAR adieresis
ENCODING 228
SWIDTH 479 0
DWIDTH 6 0
BBX 6 8 0 0
BITMAP
D8
D8
00
70
98
78
D8
EC
ENDCHAR

STARTCHAR aring
ENCODING 229
SWIDTH 479 0
DWIDTH 6 0
BBX 6 9 0 0
BITMAP
20
50
20
00
70
98
78
D8
EC
ENDCHAR

STARTCHAR ae
ENCODING 230
SWIDTH 698 0
DWIDTH 9 0
BBX 8 5 0 0
BITMAP
6E
9B
7F
D8
EF
ENDCHAR

STARTCHAR ccedilla
ENCODING 231
SWIDTH 490 0
DWIDTH 6 0
BBX 5 8 0 -3
BITMAP
70
C8
C0
C8
70
60
30
60
ENDCHAR

STARTCHAR egrave
ENCODING 232
SWIDTH 479 0
DWIDTH 6 0
BBX 5 8 0 0
BITMAP
60
30
00
70
D8
F8
C0
78
ENDCHAR

STARTCHAR eacute
ENCODING 233
SWIDTH 479 0
DWIDTH 6 0
BBX 5 8 0 0
BITMAP
18
30
00
70
D8
F8
C0
78
ENDCHAR

STARTCHAR ecircumflex
ENCODING 234
SWIDTH 479 0
DWIDTH 6 0
BBX 5 8 0 0
BITMAP
70
D8
00
70
D8
F8
C0
78
ENDCHAR

STARTCHAR edieresis
ENCODING 235
SWIDTH 479 0
DWIDTH 6 0
BBX 5 8 0 0
BITMAP
D8
D8
00
70
D8
F8
C0
78
ENDCHAR

STARTCHAR igrave
ENCODING 236
SWIDTH 292 0
DWIDTH 4 0
BBX 4 9 0 0
BITMAP
C0
60
00
20
E0
60
60
60
F0
ENDCHAR

STARTCHAR iacute
ENCODING 237
SWIDTH 292 0
DWIDTH 4 0
BBX 4 9 0 0
BITMAP
30
60
00
20
E0
60
60
60
F0
ENDCHAR

STARTCHAR icircumflex
ENCODING 238
SWIDTH 292 0
DWIDTH 4 0
BBX 5 9 0 0
BITMAP
70
D8
00
20
E0
60
60
60
F0
ENDCHAR

STARTCHAR idieresis
ENCODING 239
SWIDTH 292 0
DWIDTH 4 0
BBX 5 8 0 0
BITMAP
D8
D8
00
E0
60
60
60
F0
ENDCHAR

STARTCHAR eth
ENCODING 240
SWIDTH 563 0
DWIDTH 7 0
BBX 6 9 0 0
BITMAP
6C
38
68
0C
7C
CC
CC
CC
78
ENDCHAR

STARTCHAR ntilde
ENCODING 241
SWIDTH 573 0
DWIDTH 7 0
BBX 7 8 0 0
BITMAP
34
58
00
EC
7C
6C
6C
EE
ENDCHAR

STARTCHAR ograve
ENCODING 242
SWIDTH 573 0
DWIDTH 7 0
BBX 6 8 0 0
BITMAP
60
30
00
78
CC
CC
CC
78
ENDCHAR

STARTCHAR oacute
ENCODING 243
SWIDTH 573 0
DWIDTH 7 0
BBX 6 8 0 0
BITMAP
18
30
00
78
CC
CC
CC
78
ENDCHAR

STARTCHAR ocircumflex
ENCODING 244
SWIDTH 573 0
DWIDTH 7 0
BBX 6 8 0 0
BITMAP
38
6C
00
78
CC
CC
CC
78
ENDCHAR

STARTCHAR otilde
ENCODING 245
SWIDTH 573 0
DWIDTH 7 0
BBX 6 8 0 0
BITMAP
34
58
00
78
CC
CC
CC
78
ENDCHAR

STARTCHAR odieresis
ENCODING 246
SWIDTH 573 0
DWIDTH 7 0
BBX 6 8 0 0
BITMAP
6C
6C
00
78
CC
CC
CC
78
ENDCHAR

STARTCHAR divide
ENCODING 247
SWIDTH 668 0
DWIDTH 9 0
BBX 8 7 0 1
BITMAP
18
18
00
FF
00
18
18
ENDCHAR

STARTCHAR oslash
ENCODING 248
SWIDTH 573 0
DWIDTH 7 0
BBX 6 7 0 -1
BITMAP
04
78
DC
FC
EC
78
80
ENDCHAR

STARTCHAR ugrave
ENCODING 249
SWIDTH 573 0
DWIDTH 7 0
BBX 7 8 0 0
BITMAP
30
18
00
EC
6C
6C
6C
36
ENDCHAR

STARTCHAR uacute
ENCODING 250
SWIDTH 573 0
DWIDTH 7 0
BBX 7 8 0 0
BITMAP
0C
18
00
EC
6C
6C
6C
36
ENDCHAR

STARTCHAR ucircumflex
ENCODING 251
SWIDTH 573 0
DWIDTH 7 0
BBX 7 8 0 0
BITMAP
38
6C
00
EC
6C
6C
6C
36
ENDCHAR

STARTCHAR udieresis
ENCODING 252
SWIDTH 573 0
DWIDTH 7 0
BBX 7 8 0 0
BITMAP
6C
6C
00
EC
6C
6C
6C
36
ENDCHAR

STARTCHAR yacute
ENCODING 253
SWIDTH 521 0
DWIDTH 7 0
BBX 7 11 0 -3
BITMAP
18
30
00
EE
64
68
38
10
30
60
60
ENDCHAR

STARTCHAR thorn
ENCODING 254
SWIDTH 573 0
DWIDTH 7 0
BBX 7 12 0 -3
BITMAP
E0
60
60
7C
66
66
66
66
7C
60
60
F0
ENDCHAR

STARTCHAR ydieresis
ENCODING 255
SWIDTH 521 0
DWIDTH 7 0
BBX 7 11 0 -3
BITMAP
6C
6C
00
EE
64
68
38
10
30
60
60
ENDCHAR
ENDFONT
